<svg width="518" height="579" viewBox="0 0 518 579" fill="none" xmlns="http://www.w3.org/2000/svg">
<path d="M141.629 107.012C148.677 93.3269 140.504 83.3679 147.133 74.7788C153.475 66.5664 160.074 75.5623 158.142 75.5623C156.568 75.5623 161.289 69.2759 162.862 66.9133C163.556 65.8725 164.825 64.5447 165.375 63.4202C172.907 47.9824 177.544 36.0257 185.495 20.0855C185.609 19.8582 185.741 19.6369 185.884 19.4335C196.223 4.65363 213.609 -2.65553 229.703 0.879438C246.664 4.60581 255.016 18.8115 256.44 21.3176C261.945 30.487 267.449 39.6624 272.953 48.8317C274.443 51.2542 275.933 53.6706 277.422 56.0931C278.397 57.6841 280.21 58.5813 282.059 58.348C286.091 57.8396 292.427 58.5395 301.264 59.8374C310.675 61.2251 316.826 63.6415 320.26 65.8606C321.229 66.4886 322.372 66.7578 323.514 66.6202C328.875 65.9802 341.337 66.034 353.943 72.4161C366.047 78.547 373.232 86.1193 376.2 90.5096C377.169 91.9452 378.826 92.7407 380.555 92.627C438.452 88.7272 489.109 112.24 508.852 152.602C513.375 161.843 519.801 179.189 517.527 204.233C517.509 204.4 517.491 204.562 517.456 204.729C515.87 213.079 510.791 233.362 493.123 250.869C482.396 261.498 470.998 267.168 463.173 270.189C461.318 270.906 460.098 272.683 460.098 274.675V384.486C460.098 385.515 460.433 386.514 461.043 387.345C468.898 398.022 486.59 425.494 486.051 463.117C485.627 492.521 474.277 513.82 471.896 518.145C465.135 530.43 457.268 539.271 451.315 545.037C450.884 545.456 450.381 545.778 449.831 546.012C441.419 549.541 432.786 552.842 423.931 555.881C285.182 603.516 145.978 569.195 45.813 527.948C45.2207 527.703 44.6882 527.35 44.2335 526.889C38.7053 521.321 19.1772 499.878 18.9798 467.052C18.8063 437.72 34.1763 416.911 44.3592 406.342C47.1352 403.459 45.4122 398.668 41.4335 398.213C31.7114 397.107 19.1234 393.679 10.3345 383.72C-0.386822 371.578 -0.243212 355.632 0.109778 345.201C3.1431 256.21 4.66276 211.715 32.3515 184.835C55.4395 162.423 117.069 125.345 129.855 118.018C133.097 116.158 138.47 113.191 141.647 107.012H141.629Z" fill="#AD1B2A"/>
<path d="M165.638 97.5067C167.074 87.337 164.25 72.8105 156.95 71.1598C150.845 69.7802 142.162 77.5564 140.366 85.8808C138.227 95.7852 145.587 107.659 159.317 113C161.516 109.905 164.635 104.599 165.632 97.5008L165.638 97.5067Z" fill="#FF6B7D"/>
<path d="M168.012 255.716C170.467 252.311 184.357 233.752 210.302 229.852C234.828 226.167 252.764 238.189 256.506 240.825C257.335 239.203 273.28 209.314 305.845 207.125C333.196 205.288 357.77 223.966 365.362 246.312C368.288 254.917 368.264 268.282 367.71 273.744C345.781 275.832 323.853 272.438 301.924 274.526C300.095 311.363 298.272 348.2 296.442 385.037C293.064 386.558 287.355 388.627 279.996 388.955C272.792 389.278 267.03 387.787 263.55 386.606C262.507 382.95 261.464 379.288 260.415 375.633C259.39 377.464 257.889 379.694 255.714 381.901C251.733 385.95 247.431 387.96 244.75 388.955C234.566 387.387 224.388 385.819 214.205 384.25C216.552 380.332 218.906 376.414 221.254 372.496C216.034 369.359 210.814 366.228 205.588 363.091C209.241 359.173 212.9 355.255 216.552 351.337C212.9 347.157 209.241 342.976 205.588 338.796C207.936 336.183 210.29 333.571 212.637 330.959C207.936 327.041 203.24 323.123 198.539 319.205C194.624 316.593 190.709 313.981 186.794 311.369C187.986 306.532 190.655 292.929 184.446 277.668C179.685 265.962 171.986 258.913 168 255.722L168.012 255.716Z" fill="#FF6B7D"/>
<path d="M335.84 467.036C354.358 460.732 370.622 465.609 383.254 469.4C399.476 474.27 409.667 477.323 416.443 487.532C424.356 499.45 426.538 519.507 414.862 531.677C406.721 540.165 395.478 541.01 391.948 541.136C398.424 541.67 406.066 543.002 406.962 546.654C408.459 552.749 390.367 561.968 384.836 564.787C369.155 572.776 339.676 582.985 289.219 577.401C286.586 572.668 283.953 567.942 281.319 563.209C287.38 562.681 293.434 562.16 299.495 561.632C291.33 552.173 283.165 542.714 275 533.255C283.165 529.314 291.33 525.373 299.495 521.433C294.228 515.914 288.961 510.396 283.688 504.878C295.28 499.888 306.866 494.891 318.458 489.901C316.612 487.01 314.772 484.119 312.927 481.228C317.322 476.969 324.915 470.755 335.84 467.036Z" fill="#FF6B7D"/>
<path d="M232.629 67.2297C220.834 61.719 216.238 60.4732 205.886 60.9344C191.326 61.5813 176.066 84.139 176 105.804C175.946 122.516 184.953 134.525 188.585 138.868C186.64 140.994 178.107 150.794 178.358 165.637C178.574 178.161 181.506 182.169 189.369 190.039C204.312 199.485 220.733 203.42 247.572 199.485C253.353 198.641 297.894 192.112 305.775 164.061C307.768 156.963 306.87 150.416 305.775 145.954C309.174 149.901 316.894 157.718 329.371 161.701C349.496 168.122 366.641 159.659 370.267 157.766C371.578 155.142 372.888 152.519 374.199 149.895C377.347 149.368 380.489 148.847 383.636 148.32C381.542 142.809 379.441 137.299 377.347 131.788C380.231 129.165 383.116 126.541 386 123.917C377.736 121.965 373.816 115.711 374.989 112.111C375.875 109.386 379.878 107.553 384.426 107.385C382.93 104.217 381.422 95.8431 378.137 90.8536C373.074 83.1686 365.791 77.2567 355.331 71.171C341.226 62.9709 327.426 63.492 320.724 64.8757C318.689 63.2225 308.45 56.2144 294.77 56.2144C274.322 56.2144 274.968 65.9479 272.748 68.0204C271.88 66.2114 268.433 59.5807 260.953 56.9991C252.886 54.2138 245.525 57.9934 242.862 59.359C236.621 62.5696 236.944 69.2423 232.635 67.2297H232.629Z" fill="#FF6B7D"/>
<path d="M210.578 108.287C211.469 100.93 219.027 97.9352 224.014 103.63C225.534 105.371 228.046 102.814 226.532 101.086C219.253 92.7742 208.239 98.1333 207.016 108.287C206.736 110.58 210.305 110.562 210.578 108.287Z" fill="#6B0A13"/>
<path d="M215.32 106.201C214.903 107.828 214.762 109.725 215.726 111.214C216.42 112.29 217.667 113.062 219.038 112.996C220.649 112.919 221.867 111.788 221.99 110.288C222.114 108.788 221.049 107.403 219.979 106.41C219.285 105.765 218.473 105.02 217.402 105.285C216.95 105.395 216.355 105.765 216.02 106.085C215.479 106.592 215.45 107.326 215.467 108.004C215.497 109.08 216.085 109.902 217.302 109.99L216.414 109.764C216.444 109.78 216.473 109.791 216.502 109.814C216.738 109.951 215.961 109.422 216.52 109.825C216.673 109.935 216.832 110.062 217.002 110.15C217.632 110.481 218.455 110.564 219.085 110.183L218.196 110.409C218.532 110.431 218.896 110.393 219.226 110.321C219.555 110.249 219.849 110.095 220.085 109.88L220.361 109.543L220.143 109.797C220.432 109.659 220.82 109.135 220.955 108.909C221.649 107.74 220.902 106.421 219.843 105.715C219.12 105.236 218.185 105.037 217.314 105.213C216.197 105.44 215.308 106.653 215.779 107.707C216.132 108.501 216.961 109.163 217.949 108.865C218.767 108.617 219.561 107.684 219.185 106.83C219.096 106.637 219.202 107.1 219.202 107.105C219.196 107.657 218.808 108.148 218.296 108.368C218.008 108.495 218.332 108.402 218.02 108.435C217.661 108.473 217.908 108.446 217.991 108.451C218.226 108.468 217.761 108.424 217.755 108.418C217.791 108.446 217.92 108.468 217.961 108.468C218.102 108.484 217.679 108.308 217.785 108.402C217.802 108.418 217.985 108.512 217.985 108.517C217.985 108.517 217.638 108.28 217.849 108.435C218.02 108.561 217.802 108.385 217.761 108.319C217.938 108.572 217.708 108.065 217.744 108.236C217.808 108.451 217.838 108.297 217.826 107.778C217.761 107.536 217.814 107.332 217.973 107.172C218.061 106.956 217.996 107.133 217.908 107.216C217.861 107.26 217.814 107.298 217.767 107.343C217.602 107.497 217.432 107.673 217.32 107.866L218.373 107.105C218.702 107.034 218.302 107.089 218.202 107.094L217.732 107.155C217.202 107.365 217.167 107.376 217.632 107.188H218.573C218.361 107.155 219.038 107.409 218.638 107.194L218.561 107.138C218.89 107.381 218.843 107.343 218.414 107.034C218.073 106.802 217.714 106.703 217.285 106.67L218.173 106.896H218.161C218.432 107.221 218.702 107.547 218.973 107.878C218.949 107.822 218.996 108.429 219.002 108.071C219.002 107.977 219.002 107.878 219.002 107.784C219.002 107.69 219.014 107.591 219.014 107.497C219.014 107.133 218.961 107.767 218.979 107.69L218.526 108.418C218.561 108.379 218.049 108.755 218.232 108.639C218.285 108.6 218.338 108.561 218.391 108.523C218.579 108.39 218.908 108.302 218.349 108.473H217.408H217.438C217.179 108.335 216.92 108.197 216.661 108.054C217.167 108.446 217.626 108.865 218.061 109.328C218.255 109.538 217.82 108.997 218.061 109.334C218.126 109.422 218.191 109.505 218.244 109.598C218.296 109.681 218.349 109.764 218.396 109.852C218.561 110.155 218.408 109.907 218.379 109.786C218.414 109.929 218.467 110.084 218.514 110.227C218.532 110.277 218.491 109.714 218.479 110.04C218.479 110.1 218.467 110.189 218.479 110.249C218.414 109.78 218.573 109.825 218.502 110.023C218.402 110.299 218.555 109.874 218.608 109.819C218.573 109.852 218.555 109.918 218.532 109.957C218.367 110.2 218.873 109.593 218.661 109.802C218.367 110.089 219.032 109.576 218.738 109.753C218.543 109.869 218.543 109.714 218.979 109.665C218.92 109.67 218.861 109.709 218.802 109.714C218.485 109.764 219.373 109.692 218.92 109.698C218.867 109.698 218.802 109.681 218.749 109.692C219.226 109.62 219.208 109.78 218.955 109.709C218.908 109.698 218.826 109.654 218.779 109.654C218.896 109.654 219.249 109.88 218.985 109.731C218.932 109.698 218.873 109.665 218.814 109.637C218.538 109.494 219.12 109.918 218.949 109.731C218.902 109.681 218.843 109.631 218.796 109.587C218.549 109.367 218.914 109.747 218.896 109.714C218.814 109.576 218.72 109.427 218.632 109.29C218.514 109.108 218.732 109.51 218.732 109.51C218.732 109.455 218.679 109.378 218.661 109.323C218.626 109.223 218.602 109.124 218.573 109.019C218.561 108.97 218.555 108.925 218.543 108.876C218.473 108.606 218.585 108.992 218.567 109.052C218.596 108.948 218.538 108.76 218.538 108.644C218.526 108.368 218.549 108.093 218.573 107.817C218.596 107.541 218.561 107.927 218.549 107.955C218.585 107.872 218.585 107.723 218.602 107.64C218.638 107.453 218.685 107.265 218.732 107.083C218.943 106.245 218.449 105.252 217.497 105.048C216.544 104.844 215.556 105.302 215.326 106.206L215.32 106.201Z" fill="#6B0A13"/>
<path d="M259.372 98.2907C259.105 99.5364 258.091 100.603 258.006 101.992C257.89 103.905 259.548 105.05 261.12 105.777C261.8 106.093 262.79 106.134 263.33 105.497C264.429 104.191 265.498 102.618 264.751 100.883C264.302 99.8285 263.172 99.1967 262.705 98.3146C261.618 96.2762 258.473 98.0821 259.56 100.121C259.979 100.907 260.616 101.468 261.236 102.087C261.4 102.248 261.472 102.189 261.357 102.189C261.831 102.189 261.047 102.362 261.375 102.052C261.509 101.926 261.406 102.087 261.309 102.189C261.102 102.409 260.956 102.725 260.756 102.964L262.966 102.683C262.662 102.54 261.649 101.944 261.606 101.956C261.673 101.944 261.551 102.016 261.63 102.224C261.703 102.421 261.782 101.849 261.661 102.129C262.074 101.152 262.662 100.293 262.887 99.2384C263.367 96.9914 259.857 96.0318 259.372 98.2848V98.2907Z" fill="#6B0A13"/>
<path d="M254.353 98.0983C256.86 93.4046 261.867 92.4113 266.307 95.064C268.313 96.2632 270.133 93.1199 268.133 91.9268C262.035 88.2869 254.661 89.8434 251.232 96.2632C250.13 98.3224 253.251 100.158 254.353 98.0983Z" fill="#6B0A13"/>
<path d="M223.759 77.9829C229.957 78.1754 236.052 76.683 242.239 76.6108C244.584 76.5807 244.59 72.9701 242.239 73.0002C236.052 73.0724 229.957 74.5648 223.759 74.3722C221.414 74.3 221.414 77.9107 223.759 77.9829Z" fill="#6B0A13"/>
<path d="M219.732 82.6733C228.585 83.5782 238.268 82.6042 246.748 79.7388C248.95 78.9973 248.006 75.3528 245.785 76.1005C237.552 78.878 228.32 79.7765 219.726 78.8968C217.415 78.658 217.434 82.4345 219.726 82.667L219.732 82.6733Z" fill="#6B0A13"/>
<path d="M233.804 139.891C237.888 138.01 240.595 142.556 241.382 145.742C241.93 147.945 245.485 147.014 244.944 144.805C243.529 139.088 238.344 133.91 231.946 136.851C229.806 137.835 231.676 140.869 233.81 139.885L233.804 139.891Z" fill="#6B0A13"/>
<path d="M258.492 139.651C258.083 137.121 258.418 133.111 261.376 132.761C263.53 132.505 263.553 128.756 261.376 129.013C255.969 129.65 254.371 135.428 255.21 140.644C255.595 143.018 258.871 142.013 258.492 139.645V139.651Z" fill="#6B0A13"/>
<path d="M249.554 165.335C246.213 167.599 244.261 172.277 245.263 176.089C245.709 177.796 247.079 179.175 249.069 178.982C251.583 178.734 253.367 176.259 254.659 174.491C256.074 172.561 252.714 170.739 251.312 172.658C250.749 173.426 250.161 174.189 249.431 174.824C249.16 175.06 248.514 175.551 248.442 175.423C248.417 175.381 249.03 175.508 249.134 175.563C249.153 175.575 249.302 175.823 249.147 175.551C249.095 175.46 248.953 174.951 248.934 174.703C248.798 172.634 249.586 169.771 251.506 168.47C253.425 167.169 251.577 163.962 249.547 165.335H249.554Z" fill="#6B0A13"/>
<path d="M320.711 70.8797C312.723 84.5858 306.954 127.416 333.307 123.389C337.397 122.763 341.635 121.322 344.415 118.067C347.362 114.614 348.059 109.979 348.261 105.567H344.689C344.576 113.36 343.118 123.498 350.702 128.446C354.273 130.773 365.863 133.449 366.971 126.801C367.352 124.523 363.911 123.546 363.524 125.837C363.197 127.82 358.958 127.337 357.589 127.138C354.869 126.747 352.267 125.668 350.541 123.432C346.791 118.574 348.166 111.269 348.249 105.561C348.285 103.222 344.784 103.246 344.677 105.561C344.511 109.195 344.034 113.252 341.433 116.006C339.129 118.447 335.54 119.472 332.313 119.894C328.003 120.46 323.86 119.261 321.283 115.56C315.806 107.694 317.217 95.3806 319.033 86.5567C320.009 81.8072 321.33 76.907 323.789 72.6939C324.962 70.6868 321.872 68.8666 320.705 70.8677L320.711 70.8797Z" fill="#6B0A13"/>
<path d="M201.889 314.894C201.041 311.791 201.698 308.553 205.338 307.61C208.459 306.804 211.764 308.186 213.584 310.623C214.903 312.389 218.006 310.702 216.675 308.914C213.817 305.088 208.769 302.99 203.894 304.485C198.619 306.104 197.157 311.114 198.434 315.797C199.007 317.907 202.462 317.01 201.889 314.894Z" fill="#6B0A13"/>
<path d="M202.233 318.943C210.097 316.911 217.501 313.609 224.811 310.051C232.507 306.31 240.282 302.086 248.616 300.048C257.494 297.881 266.651 298.485 275.689 298.058C279.374 297.887 283.243 297.759 286.749 296.496C288.346 295.922 294.386 292.242 295.62 294.201C296.854 296.16 299.96 294.341 298.708 292.352C295.071 286.566 286.898 293.194 282.188 293.859C272.577 295.208 262.8 294.122 253.183 295.477C234.678 298.089 219.254 310.753 201.273 315.403C199.043 315.983 199.985 319.511 202.227 318.937L202.233 318.943Z" fill="#6B0A13"/>
<path d="M246.752 325.825C251.612 323.641 256.364 321.078 261.488 319.505C264.081 318.71 266.733 318.191 269.452 318.024C272.171 317.857 274.361 318.508 276.983 319.269C280.803 320.381 284.117 319.753 286.667 316.728C289.218 313.703 292.532 308.397 297.29 310.926C299.323 312.009 301.145 309.025 299.112 307.942C295.461 306.001 290.487 307.251 287.527 309.953C285.976 311.37 285.079 313.277 283.672 314.798C281.524 317.12 279.016 316.256 276.345 315.409C265.555 311.975 254.361 318.6 244.929 322.835C242.83 323.78 244.658 326.758 246.752 325.819V325.825Z" fill="#6B0A13"/>
<path d="M257.01 362.697C257.485 367.619 258.375 372.552 259.634 377.337C260.454 380.451 261.457 385.52 264.86 386.867C266.991 387.712 267.918 384.285 265.81 383.446C265.311 383.251 264.474 380.888 264.218 380.179C263.529 378.265 263.019 376.286 262.556 374.307C261.665 370.49 260.947 366.602 260.572 362.697C260.359 360.446 256.79 360.422 257.01 362.697Z" fill="#6B0A13"/>
<path d="M288.098 347.24C289.995 353.404 291.985 359.549 293.286 365.89C294.465 371.639 295.761 379.035 292.487 384.309C291.255 386.29 294.29 388.125 295.51 386.156C298.889 380.712 298.177 373.542 297.144 367.475C295.907 360.232 293.619 353.257 291.471 346.27C290.783 344.039 287.403 344.99 288.092 347.246L288.098 347.24Z" fill="#6B0A13"/>
<path d="M348.25 495.53C372.346 491.281 394.443 503.499 417.743 506.977C420.005 507.316 420.981 503.752 418.7 503.406C407.042 501.667 395.844 497.523 384.43 494.667C372.262 491.62 359.754 489.764 347.299 491.959C345.024 492.36 345.988 495.925 348.256 495.53H348.25Z" fill="#6B0A13"/>
<path d="M359.25 537.315C370.57 540.554 382.38 542.944 394.268 543C396.575 543.011 396.58 539.66 394.268 539.649C382.685 539.593 371.234 537.242 360.207 534.081C357.995 533.45 357.051 536.684 359.25 537.315Z" fill="#6B0A13"/>
<path d="M398.594 501.297C396.902 507.496 398.697 515.691 405.634 517.651C413.141 519.77 416.185 511.802 415.991 505.683C415.919 503.325 412.28 503.312 412.353 505.683C412.468 509.284 411.371 515.893 406.247 513.994C401.571 512.261 400.953 506.461 402.099 502.277C402.723 499.993 399.212 499.019 398.588 501.297H398.594Z" fill="#6B0A13"/>
<path d="M398.18 473.36C397.624 477.73 398.257 482.914 401.476 486.082C404.974 489.526 409.311 487.854 412.442 484.818C414.128 483.183 411.613 480.529 409.933 482.163C407.885 484.148 405.293 485.375 403.311 482.658C401.666 480.404 401.257 477.104 401.606 474.361C401.908 471.995 398.488 470.974 398.18 473.36Z" fill="#6B0A13"/>
<path d="M380.602 539.265C379.222 544.599 379.83 552.806 386.561 553.896C393.293 554.987 395.521 547.23 394.901 541.938C394.638 539.692 391.129 539.668 391.392 541.938C391.719 544.747 391.515 550.933 387.228 550.43C382.684 549.896 383.187 543.289 383.982 540.208C384.555 537.991 381.169 537.049 380.596 539.259L380.602 539.265Z" fill="#6B0A13"/>
<path d="M159.19 81.3339C171.158 87.6293 183.199 93.7963 195.359 99.7299C198.114 101.072 200.545 97.0461 197.784 95.6983C185.624 89.7647 173.583 83.5977 161.615 77.3023C158.896 75.8729 156.471 79.8986 159.19 81.3339Z" fill="#FF0016"/>
<path d="M251.984 79.7582C238.808 87.6375 243.158 108.669 256.167 114.428C262.746 117.346 270.942 116.254 275.738 110.706C280.534 105.158 281.104 97.6364 278.341 91.3071C274.05 81.4785 262.948 77.4684 252.792 79.5234C249.796 80.1281 251.062 84.6608 254.058 84.0502C261.362 82.5706 269.385 85.0541 273.242 91.677C275.767 96.01 275.952 101.664 273.331 106.003C270.437 110.8 264.725 112.291 259.478 110.671C254.23 109.05 250.795 104.23 249.398 99.251C247.794 93.5265 248.947 87.068 254.385 83.8153C256.999 82.2536 254.61 78.1906 251.984 79.7582Z" fill="#FF0016"/>
<path d="M208.358 87.323C195.396 93.3184 192.702 113.074 204.595 121.651C218.334 131.562 236.743 117.838 233.657 101.86C232.791 97.377 230.013 93.3005 226.275 90.7481C221.521 87.5024 215.592 87.078 210.025 87.0003C206.969 86.9584 206.969 91.7403 210.025 91.7822C217.42 91.8898 225.835 93.1331 228.577 101.22C230.429 106.684 228.376 112.864 224.209 116.666C220.043 120.468 213.319 121.328 208.239 118.346C203.788 115.734 201.61 110.641 201.687 105.584C201.782 99.3974 205.165 94.0297 210.744 91.4475C213.515 90.1623 211.106 86.0439 208.346 87.3171L208.358 87.323Z" fill="#FF0016"/>
<path d="M234.015 100.236C235.7 98.3657 239.716 97.3523 241.532 98.6284C244.075 100.417 246.447 96.0887 243.922 94.3059C240.083 91.6035 233.607 93.4364 230.667 96.6955C228.567 99.0288 231.909 102.569 234.015 100.236Z" fill="#FF0016"/>
<path d="M274.657 63.937C269.283 75.4996 273.938 90.4901 286.041 95.3722C290.125 97.0197 294.256 98.5284 298.192 100.526C300.147 101.522 306.502 104.298 306.051 107.303C305.783 109.077 302.531 110.604 301.075 110.803C298.323 111.183 295.433 109.216 293.18 107.888C288.169 104.931 282.432 101.141 276.387 103.163C270.751 105.052 267.024 110.236 267 116.222C266.976 122.505 270.163 128.66 273.819 133.542C281.939 144.387 301.116 154.489 312.483 142.745C314.094 141.08 311.573 138.521 309.962 140.187C299.767 150.723 282.26 139.722 275.691 130.024C272.582 125.431 269.372 119.047 270.93 113.32C271.75 110.314 274.086 108.003 276.904 106.838C279.87 105.613 282.944 106.446 285.714 107.798C290.273 110.013 294.768 114.195 300.041 114.436C303.548 114.599 308.571 111.992 309.492 108.263C311.306 100.96 298.269 96.4403 293.555 94.479C289.691 92.8738 285.69 91.8539 282.516 88.9693C276.06 83.1035 274.021 73.7435 277.736 65.7595C278.711 63.6654 275.638 61.8248 274.657 63.9309V63.937Z" fill="#6B0A13"/>
<path d="M296.296 385.592L298.119 274.882L461 268L459.423 387.958L381.619 397.902L292.531 401L249 393.476V379.317L296.296 385.592Z" fill="#ED8D96"/>
<path d="M307.152 282.313C306.789 317.439 305.855 352.559 306.019 387.685C306.031 390.769 310.879 390.775 310.867 387.685C310.703 352.553 311.636 317.433 312 282.313C312.03 279.229 307.182 279.229 307.152 282.313Z" fill="#AD1B2A"/>
<path d="M311.316 391C328.544 390.925 345.849 389.351 363.029 388.265C384.983 386.879 406.949 385.474 428.867 383.543C432.138 383.254 435.415 382.972 438.673 382.564C440.237 382.37 443.609 382.395 443.963 380.15C444.46 376.989 439.841 375.634 439.344 378.814C439.512 377.754 441.333 377.44 440.554 377.252C440.351 377.202 439.979 377.371 439.77 377.396C439.057 377.484 439.925 377.384 439.17 377.484C438.631 377.553 438.092 377.616 437.553 377.679C434.528 378.024 431.503 378.293 428.472 378.557C418.996 379.385 409.507 380.081 400.025 380.758C377.657 382.357 355.272 383.812 332.881 385.035C325.704 385.431 318.504 385.945 311.316 385.976C308.231 385.989 308.225 391.006 311.316 390.994V391Z" fill="#AD1B2A"/>
<path d="M378.936 315.065C375.449 325.226 367.957 337.498 378.15 346.392C385.535 352.831 398.019 352.741 404.279 344.73C405.701 342.911 405.029 339.395 402.173 339.605C395.871 340.079 390.569 337.048 387.267 331.665C384.714 327.506 383.054 321.991 384.672 317.19C385.91 313.523 380.162 311.951 378.936 315.593C376.764 322.027 378.894 329.732 382.47 335.236C386.874 342.005 394.038 346.212 402.173 345.606L400.066 340.481C395.568 346.242 386.457 346.56 381.399 341.243C374.901 334.407 382.215 323.791 384.666 316.656C385.922 313.001 380.174 311.429 378.93 315.059L378.936 315.065Z" fill="#EAC7CE"/>
<path d="M377.53 335.54C380.474 339.978 384.763 342.866 388.814 346.127C390.116 347.173 391.844 347.403 393.115 346.127C394.18 345.057 394.405 342.76 393.115 341.727C389.556 338.87 385.365 336.293 382.779 332.403C380.596 329.11 375.321 332.216 377.53 335.546V335.54Z" fill="#EAC7CE"/>
<path d="M377.046 334.639C378.245 341.581 385.229 344.866 392.063 345.951C396.01 346.578 397.71 340.989 393.732 340.356C388.938 339.596 383.955 338.081 383.096 333.101C382.462 329.421 376.413 330.983 377.046 334.645V334.639Z" fill="#EAC7CE"/>
<path d="M146.345 161.553C158.331 177.24 175.135 187.847 193.21 195.824C195.333 196.762 197.189 193.693 195.054 192.749C177.617 185.057 161.087 174.919 149.503 159.76C148.116 157.944 144.946 159.719 146.352 161.559L146.345 161.553Z" fill="#6B0A13"/>
<path d="M112.725 193.597C141.368 195.33 167.166 226.813 160.267 255.614C160.006 256.706 160.791 257.941 161.988 257.893C174.095 257.389 180.208 270.549 183.226 280.433C186.482 291.103 188.423 303.495 186.685 314.633L188.405 313.313C180.702 312.707 172.976 312.821 165.256 313.001C162.946 313.055 162.97 316.48 165.256 316.6C175.911 317.164 189.161 313.007 196.578 323.221C197.923 325.075 201.024 323.275 199.661 321.404C195.917 316.246 190.863 313.505 184.578 312.839C178.292 312.174 171.696 313.343 165.256 313.001V316.6C172.976 316.426 180.702 316.306 188.405 316.912C189.107 316.966 190.012 316.318 190.125 315.592C191.602 306.146 190.518 296.135 188.554 286.845C186.59 277.554 182.982 266.122 175.387 259.315C171.643 255.956 167.018 254.091 161.982 254.301L163.702 256.58C171.172 225.415 143.708 191.881 112.719 190.004C110.421 189.866 110.433 193.465 112.719 193.603L112.725 193.597Z" fill="#6B0A13"/>
<path d="M107.212 405.724C141.451 395.677 177.309 388.062 213.144 389.883C245.145 391.51 277.769 403.371 302.665 424.003C314.578 433.874 329.482 445.324 330.409 462.253C330.534 464.576 334.122 464.588 333.997 462.253C333.16 446.89 322.018 435.682 311.038 426.325C298.664 415.783 285.531 406.934 270.688 400.299C255.844 393.663 239.595 388.788 223.167 387.04C204.753 385.08 186.13 386.06 167.818 388.558C146.97 391.401 126.452 396.3 106.262 402.228C104.049 402.875 104.988 406.383 107.218 405.73L107.212 405.724Z" fill="#6B0A13"/>
<path d="M317.286 432.065C323.682 418.494 339.397 392.534 357.326 403.134C359.324 404.315 361.126 401.161 359.133 399.98C339.033 388.096 321.582 414.549 314.195 430.22C313.199 432.327 316.289 434.183 317.286 432.065Z" fill="#6B0A13"/>
<path d="M353.006 167.734C352.855 180.649 365.545 190.86 374.74 198.125C386.543 207.447 399.16 216.497 414.142 219.773C423 221.708 432.032 221.329 440.727 218.817C442.96 218.174 442.012 214.688 439.762 215.337C420.242 220.981 401.766 213.583 385.963 202.182C379.724 197.681 373.521 192.909 367.982 187.566C362.606 182.38 356.53 175.667 356.62 167.74C356.644 165.42 353.024 165.42 353 167.74L353.006 167.734Z" fill="#6B0A13"/>
<path d="M47.6621 254.284C47.5646 244.913 48.4908 234.762 53.7133 226.628C54.9625 224.681 51.7998 222.899 50.5567 224.834C45.0052 233.483 43.9083 244.304 44.0058 254.284C44.0301 256.569 47.6865 256.575 47.6621 254.284Z" fill="#911625"/>
<path d="M60.4551 249.07C64.1276 242.103 64.775 234.528 64.9991 226.793C65.0675 224.402 61.3328 224.402 61.2643 226.793C61.0589 233.847 60.5858 240.833 57.2307 247.193C56.1165 249.312 59.3408 251.188 60.4551 249.07Z" fill="#911625"/>
<path d="M137.059 269.245C139.183 278.194 142.033 287.029 142.149 296.265C142.174 298.575 146.026 298.581 146 296.265C145.884 286.706 142.97 277.554 140.769 268.288C140.236 266.031 136.519 266.989 137.052 269.245H137.059Z" fill="#911625"/>
<path d="M73.8435 345.86C71.0187 339.425 69.0191 332.728 68.8096 325.731C68.7398 323.429 64.9311 323.417 65.0009 325.731C65.2168 333.045 67.2163 340.077 70.1744 346.811C71.1012 348.916 74.7829 347.995 73.8498 345.854L73.8435 345.86Z" fill="#911625"/>
<path d="M78.3271 315.557C82.5214 321.293 85.0018 327.871 86.4622 334.73C86.933 336.954 90.4272 336.013 89.9565 333.789C88.4417 326.665 85.8105 319.728 81.4593 313.775C80.1195 311.939 76.9753 313.704 78.3332 315.557H78.3271Z" fill="#911625"/>
<path d="M116.633 447.954C125.712 455.027 138.654 467.524 151.088 461.327C153.157 460.295 151.339 457.193 149.276 458.219C143.809 460.943 137.721 458.327 132.877 455.465C128.032 452.604 123.636 448.896 119.163 445.411C117.363 444.007 114.803 446.539 116.627 447.954H116.633Z" fill="#911625"/>
<path d="M141.777 443.468C148.421 442.918 154.663 444.579 158.938 449.423C160.429 451.113 163.04 448.716 161.561 447.043C156.754 441.593 149.281 439.483 141.777 440.106C139.42 440.302 139.395 443.67 141.777 443.473V443.468Z" fill="#911625"/>
<path d="M215.791 450.532C225.469 457.571 235.792 465.666 248.274 464.956C250.569 464.827 250.581 461.125 248.274 461.255C236.48 461.927 226.73 453.974 217.602 447.336C215.713 445.96 213.92 449.168 215.791 450.532Z" fill="#911625"/>
<path d="M209.702 521.829C216.808 521.581 223.998 521.606 230.834 523.904C233.003 524.63 233.932 521.034 231.774 520.308C224.65 517.916 217.108 517.842 209.702 518.103C207.439 518.183 207.427 521.91 209.702 521.829Z" fill="#911625"/>
<path d="M200.764 533.778C210.607 534.388 220.346 536.344 230.231 535.947C232.583 535.853 232.596 532.08 230.231 532.174C220.34 532.576 210.601 530.614 200.764 530.004C198.406 529.859 198.418 533.633 200.764 533.778Z" fill="#911625"/>
<path d="M406.511 438.742C408.804 431.144 419.148 425.139 426.779 426.882C429.007 427.393 429.961 423.919 427.727 423.402C418.177 421.214 405.966 428.241 403.086 437.781C402.417 440.005 405.847 440.954 406.517 438.742H406.511Z" fill="#911625"/>
<path d="M420.648 444.667C424.874 441.672 429.064 438.622 433.217 435.524C435.084 434.133 433.266 430.943 431.375 432.351C427.222 435.45 423.032 438.5 418.806 441.494C416.902 442.848 418.721 446.032 420.648 444.667Z" fill="#911625"/>
<path d="M435.769 493C445.254 492.443 454.567 490.447 463.703 487.785C465.976 487.126 465.014 483.414 462.723 484.08C453.9 486.646 444.929 488.617 435.769 489.154C433.416 489.295 433.404 493.134 435.769 492.994V493Z" fill="#911625"/>
<path d="M395.793 178.315C403.603 183.539 409.972 190.453 418.897 193.877C420.995 194.681 421.901 191.303 419.827 190.505C411.273 187.226 405.044 180.307 397.554 175.298C395.683 174.046 393.934 177.068 395.793 178.315Z" fill="#911625"/>
<path d="M406.176 167.769C410.716 169.763 415.013 172.288 419.329 174.757C421.339 175.907 423.13 172.669 421.12 171.519C416.527 168.888 411.945 166.275 407.116 164.15C405.011 163.225 404.095 166.85 406.17 167.769H406.176Z" fill="#911625"/>
<path d="M434.57 135.926C438.487 139.279 442.405 142.626 446.547 145.679C448.326 146.993 450.02 143.929 448.253 142.626C444.347 139.75 440.654 136.586 436.962 133.427C435.29 132.001 432.887 134.488 434.575 135.926H434.57Z" fill="#911625"/>
<path d="M448.208 129.725C454.595 132.101 458.773 137.552 462.634 143.189C463.952 145.116 467.005 143.252 465.669 141.3C461.222 134.801 456.482 128.846 449.14 126.114C447.001 125.316 446.081 128.933 448.202 129.725H448.208Z" fill="#911625"/>
</svg>
