<svg width="332" height="325" viewBox="0 0 332 325" fill="none" xmlns="http://www.w3.org/2000/svg">
<path d="M313.398 96.3827H272.379C271.412 94.1541 270.384 91.864 269.381 89.7149C266.014 82.4973 264.774 74.4403 265.823 66.5207C266.004 65.1496 266.185 63.782 266.369 62.4108C276.062 43.0371 270.505 19.6041 254.351 7.68318C236.447 -5.52932 209.764 -1.46644 195.656 18.0629C181.299 16.301 152.266 14.7561 119.396 27.9722C79.7031 43.9307 57.5603 72.1031 49.1468 84.1181C31.9726 77.8917 13.434 84.2122 4.77958 98.2712C-4.91324 114.02 1.85932 132.858 9.8652 143.093C17.5131 152.872 27.5745 156.443 32.0506 157.72C34.2089 159.135 36.3636 160.549 38.5219 161.968C38.9756 165.361 40.6164 174.182 47.7647 181.783C54.197 188.621 61.6252 190.791 64.8644 191.692C68.1816 192.615 71.1976 192.976 73.6713 193.085C75.3192 193.157 76.9459 193.505 78.4628 194.17C82.0174 195.733 86.3587 196.656 87.5105 200.183C90.2642 206.363 93.468 212.701 95.8283 217.52V221.431C95.8283 249.383 95.8283 277.331 95.8283 305.283C95.8283 315.767 104.157 324.269 114.427 324.269H313.401C323.672 324.269 332 315.767 332 305.283V115.373C332 104.888 323.672 96.3863 313.401 96.3863L313.398 96.3827ZM224.769 161.494C224.613 167.42 223.104 191.67 203.973 205.371C177.787 224.126 144.611 204.492 142.967 203.483C127.122 193.765 119.842 179.254 117.085 172.814C98.7273 177.011 80.5466 170.216 71.7929 156.302C61.3701 139.736 68.2631 119.371 75.4893 108.651C84.8278 94.7981 93.6771 84.0095 122.632 79.8707C145.738 76.5676 135.11 69.9613 163.302 52.5051C185.948 42.5957 203.729 50.4501 215.527 67.1322C227.459 83.9987 226.123 107.385 212.291 122.804C215.615 127.272 225.29 141.465 224.769 161.494Z" fill="#BD3148"/>
<path d="M170.696 114.313C179.12 114.313 185.949 107.341 185.949 98.7413C185.949 90.1415 179.12 83.1699 170.696 83.1699C162.272 83.1699 155.442 90.1415 155.442 98.7413C155.442 107.341 162.272 114.313 170.696 114.313Z" fill="#BD3148"/>
<path d="M119.396 145.452C127.82 145.452 134.649 138.481 134.649 129.881C134.649 121.281 127.82 114.31 119.396 114.31C110.972 114.31 104.143 121.281 104.143 129.881C104.143 138.481 110.972 145.452 119.396 145.452Z" fill="#BD3148"/>
</svg>
