<svg width="37" height="37" viewBox="0 0 37 37" fill="none" xmlns="http://www.w3.org/2000/svg">
<path d="M25.802 36.9259L25.7554 36.9753L1.46973 37L1.21312 36.9506L0.886509 36.8518L0.60656 36.7036L0.233292 36.3578L0.163303 36.2096L0.0699883 36.0367L0 35.8144V13.8565L0.0699883 13.5354L0.209965 13.0908L0.443253 12.6462L0.956493 12.1275L1.02648 12.1028L1.79634 11.6582L2.72951 11.4112L3.28941 11.3124L4.15258 11.2136H5.45902L6.69546 11.1889L7.27869 11.0901L7.55864 10.9419L7.69861 10.6949V10.1762L7.55864 9.28705L7.34868 7.80507L7.16204 6.3478L7.11539 5.9279L7.09206 5.53271L7.02207 5.13752L6.97541 4.64352L6.92875 3.08745L7.02207 2.59346L7.11539 2.24766L7.25536 1.92657L7.48865 1.50668L8.00189 0.963284L8.39849 0.666889L8.74842 0.444593L9.14502 0.296395L9.82156 0.0740988L10.6847 0L11.6179 0.0740988L12.3644 0.222296L13.4376 0.568091L14.604 1.16088L15.7238 1.70427L16.1204 1.80307L16.8203 1.82777L17.2636 1.75367L17.7768 1.70427L18.5467 1.67957H20.483L20.8096 1.75367L21.1595 1.80307L21.4161 1.85247L21.6728 1.87717L21.8827 1.95127L22.3493 2.09947L22.8159 2.29706L23.3291 2.54406L23.7724 2.76636L24.169 3.01335L25.1255 3.70494L26.5019 4.86582L27.5984 5.9279L28.6482 7.01469L29.8846 8.32376L30.2579 8.71896L30.5845 8.99065L31.1444 9.16355L31.7509 9.21295L32.4975 9.26235L33.0107 9.31175L33.7106 9.41055L34.6671 9.63284L35.2037 9.83044L35.8569 10.2997L36.5101 11.1642L36.8834 12.1769L37 12.5474V13.8565L36.8834 14.4246L36.7434 14.9927L36.2768 15.9559L35.7402 16.6969L35.157 17.2403L34.7604 17.6108L34.1538 18.006L33.8272 18.2036L33.454 18.4506L33.1274 18.7717L32.9174 18.9693L32.7774 19.241L32.4508 19.8091L31.8909 20.5995L31.6576 20.8959L31.1677 21.2417L30.9111 21.4393L30.1179 21.785L29.348 22.0567L28.6715 22.3531L28.2049 22.6248L27.8317 23.02L27.5284 23.5881L27.505 23.6622L27.4584 23.7857L27.4351 23.8351V23.9092L27.4117 23.9586H27.3884V24.1315H27.3417L27.3184 24.2797L27.2951 24.3538V24.4526L27.2484 24.4773V24.6255L27.2018 24.6749V24.7737V24.8231L27.1551 24.8725V24.9219V24.9713V25.0207L27.1084 25.1195V25.1689L27.0618 25.2677V25.3171L27.0151 25.4159V25.4653L26.9685 25.5147V25.6135L26.9218 25.6629V25.7617L26.8752 25.8358V25.984L26.8285 26.0334V26.3545L26.8752 26.4286V26.6509L26.9218 26.7003V26.8979L26.9685 27.0214V27.2684V35.8638L26.9218 35.9626V36.0614L26.8752 36.1602L26.8285 36.2343L26.7818 36.3084L26.7352 36.3578V36.4072L26.5485 36.5801L26.5019 36.6295L26.4319 36.6789L26.3619 36.7283H26.2919V36.7777H26.2453L26.1986 36.8271H26.1286L26.082 36.8765H25.9653L25.942 36.9259H25.802Z" fill="white"/>
<path d="M29.209 15.1417V16.0309L29.1157 16.352L28.9524 16.846L28.8124 17.1671L28.6258 17.5622L28.2525 18.1303L27.6926 18.7231L27.4826 18.896L26.9461 19.3159L26.3162 19.6123L25.7329 19.7852L25.0564 19.8593L24.3099 20.0075L23.8433 20.1557L23.4 20.4027L23.0968 20.6744L22.7235 21.0943L22.3969 21.5389L22.0003 22.0329L21.767 22.3293L21.2071 22.9468L20.5772 23.4408L20.0173 23.8112L19.2941 24.157L18.7109 24.3299L18.011 24.4781H16.8445L16.6346 24.4534L16.3546 24.3793L16.0747 24.3299L15.7481 24.2064L15.3981 24.0582L14.9549 23.7865L14.465 23.4655L14.115 23.1197L13.6251 22.601L13.2285 22.0576L12.9719 21.613L12.7853 21.2178L12.5986 20.7979L12.4353 20.3039L12.272 19.7605L12.202 19.2171L12.1321 18.6984V17.661L12.202 17.1918L12.2954 16.7472L12.482 16.1297L12.7853 15.4381L13.1352 14.6971L13.2985 14.129V13.8079L13.2285 13.5609L13.1352 13.1657L12.9019 12.4988L12.7386 11.8813L12.692 11.2639L12.622 11.1898L12.6453 10.0289L12.6686 9.95477L12.8086 9.28788L12.9952 8.74449L13.2285 8.2752L13.5085 7.85531L13.9517 7.36132L14.3483 7.06492L14.8149 6.76853L15.6548 6.47213L16.1913 6.34863L17.4978 6.37333L17.9877 6.47213L18.4309 6.59563L19.1775 6.89202L19.5041 7.06492L19.7607 7.21312L20.3206 7.60831L20.8805 8.00351L21.4404 8.4728L21.977 8.86799L22.7468 9.41138L23.1667 9.70778L24.0999 10.2265L24.9164 10.6958L25.7096 11.1651L26.3862 11.6343L26.9461 12.0542L27.2727 12.3506L27.6926 12.6964L28.1592 13.2151L28.6724 13.8573L28.999 14.4995L29.209 15.1417Z" fill="#CE5368"/>
</svg>
