<svg width="1308" height="509" viewBox="0 0 1308 509" fill="none" xmlns="http://www.w3.org/2000/svg">
<path d="M14.568 86.0574C10.6013 61.7191 29.3876 39.623 54.0471 39.623H1260.71C1285.45 39.623 1304.26 61.8617 1300.15 86.262L1234.61 475.639C1231.37 494.898 1214.7 509 1195.17 509H117.509C97.9007 509 81.1835 494.787 78.0294 475.435L14.568 86.0574Z" fill="#E3536B"/>
<path d="M8.36683 46.2871C4.50041 21.9937 23.2705 0 47.8696 0H343.573C355.584 0 366.959 5.39703 374.555 14.7L431.585 84.5384C451.616 109.069 436.548 146.045 405.076 149.587L69.4711 187.363C48.2251 189.754 28.8546 175.015 25.4941 153.901L8.36683 46.2871Z" fill="#E3536B"/>
</svg>
