<svg width="1308" height="668" viewBox="0 0 1308 668" fill="none" xmlns="http://www.w3.org/2000/svg">
<path d="M12.5797 96.9296C9.61613 73.0658 28.2277 52 52.2748 52H1262.54C1286.65 52 1305.28 73.1729 1302.22 97.0882L1233.48 633.088C1230.92 653.049 1213.93 668 1193.8 668H118.84C98.6546 668 81.6323 652.961 79.1447 632.93L12.5797 96.9296Z" fill="#E3536B"/>
<path d="M6.43489 44.8156C3.5454 20.9891 22.1429 0 46.144 0H340.329C354.149 0 366.99 7.13392 374.291 18.8679L445.776 133.754C460.993 158.209 446.153 190.247 417.659 194.456L72.1121 245.501C49.8553 248.789 29.2662 233.08 26.5576 210.746L6.43489 44.8156Z" fill="#E3536B"/>
</svg>
